<?xml version="1.0" encoding="UTF-8" standalone="no"?>
<!-- Created with Inkscape (http://www.inkscape.org/) -->

<svg
   width="107.12877mm"
   height="169.80827mm"
   viewBox="0 0 107.12877 169.80827"
   version="1.1"
   id="svg1"
   xml:space="preserve"
   xmlns:inkscape="http://www.inkscape.org/namespaces/inkscape"
   xmlns:sodipodi="http://sodipodi.sourceforge.net/DTD/sodipodi-0.dtd"
   xmlns="http://www.w3.org/2000/svg"
   xmlns:svg="http://www.w3.org/2000/svg"><sodipodi:namedview
     id="namedview1"
     pagecolor="#ffffff"
     bordercolor="#000000"
     borderopacity="0.25"
     inkscape:showpageshadow="2"
     inkscape:pageopacity="0.0"
     inkscape:pagecheckerboard="0"
     inkscape:deskcolor="#d1d1d1"
     inkscape:document-units="mm"><inkscape:page
       x="0"
       y="0"
       width="107.12877"
       height="169.80827"
       id="page2"
       margin="0"
       bleed="0" /></sodipodi:namedview><defs
     id="defs1" /><g
     inkscape:label="Layer 1"
     inkscape:groupmode="layer"
     id="layer1"
     transform="translate(-53.737902,-68.307045)"><path
       style="fill:#000000"
       d="m 88.370835,237.03552 c -1.236927,-0.58819 -2.487083,-1.2858 -2.778125,-1.55025 -0.291041,-0.26444 -4.220104,-2.20851 -8.73125,-4.32015 -4.511145,-2.11164 -10.432834,-4.91876 -13.159307,-6.23806 -2.726474,-1.31929 -5.108064,-2.34084 -5.292423,-2.27009 -0.503164,0.19308 -4.087871,-1.61094 -4.41477,-2.22176 -0.680824,-1.27213 0.05237,-3.1998 1.473561,-3.8742 0.91285,-0.43317 0.946821,-0.42713 2.956118,0.52617 1.11796,0.53041 2.27078,1.17524 2.561822,1.43296 0.291041,0.25772 1.439329,0.89288 2.551749,1.41146 l 2.022583,0.94287 1.693882,-2.2888 c 0.931636,-1.25884 3.027672,-4.13426 4.657857,-6.38984 1.630186,-2.25557 4.929073,-6.77994 7.330861,-10.05416 2.401787,-3.27422 6.711717,-9.16781 9.577623,-13.09688 2.865906,-3.92906 6.199219,-8.47735 7.407362,-10.10731 1.208143,-1.62995 2.196624,-3.03575 2.196624,-3.12399 0,-0.0882 -2.236515,-3.15994 -4.970032,-6.82602 -6.104174,-8.18666 -8.535355,-11.47439 -9.052885,-12.24238 -0.521371,-0.7737 -11.795457,-16.53196 -13.898371,-19.42634 -0.898691,-1.23693 -2.61673,-3.65351 -3.817863,-5.37018 -2.284192,-3.26458 -2.955092,-3.90718 -4.171085,-3.99509 -0.976024,-0.0706 -4.463486,-2.13091 -5.004484,-2.95657 -1.047643,-1.59891 0.258261,-4.08232 2.146689,-4.08232 0.875827,0 0.886232,-0.0137 0.655187,-0.8599 -0.218413,-0.79998 -1.450038,-11.45535 -3.020016,-26.127604 -0.365923,-3.41974 -0.964317,-8.837084 -1.329765,-12.038542 -0.821284,-7.194744 -0.84092,-8.703156 -0.128509,-9.87165 0.93854,-1.53939 1.339129,-1.601292 13.14865,-2.031839 39.749762,-1.449183 49.060642,-1.75629 50.407092,-1.662613 2.55608,0.177836 3.14534,1.071085 3.62582,5.496311 0.74568,6.867851 2.17939,19.201838 2.65067,22.803405 0.2916,2.228492 0.83167,6.849772 1.20015,10.269512 0.92527,8.58727 0.84219,8.17311 1.6785,8.36705 0.96532,0.22385 7.07956,3.11831 18.69588,8.85058 8.16699,4.03015 9.95635,4.82002 10.79578,4.76557 1.44194,-0.0935 2.30109,0.54339 2.30109,1.70591 0,1.31546 -1.01295,5.69855 -1.48352,6.41929 -0.64785,0.99226 -1.51618,1.25231 -2.81581,0.84327 -2.01567,-0.63439 -5.06198,-1.85451 -6.54859,-2.62286 -0.80036,-0.41366 -1.71367,-0.83018 -2.02956,-0.9256 -0.62939,-0.19011 -0.20071,-0.766 -8.55342,11.49054 -4.24348,6.22678 -7.84904,11.4721 -11.58102,16.84794 -6.85026,9.86765 -10.7296,15.59106 -10.73098,15.83201 -8.5e-4,0.14767 2.0776,3.0647 4.61877,6.48229 2.54118,3.41759 6.39157,8.59505 8.55643,11.50547 2.16486,2.91041 6.31712,8.50635 9.22724,12.43541 2.91013,3.92906 5.59825,7.45804 5.97361,7.84217 0.69493,0.71115 8.65267,3.93179 9.71491,3.93179 0.83155,0 5.15731,1.53674 5.69468,2.02305 0.34098,0.30859 0.48643,0.81272 0.48643,1.68604 0,1.54583 -0.92111,2.64161 -2.2189,2.63969 -0.8618,-0.001 -4.95066,-1.47593 -5.20259,-1.87633 -0.14316,-0.22751 -8.26845,-3.29102 -19.6983,-7.42693 -8.94127,-3.2354 -9.9745,-3.58741 -11.1125,-3.78585 -3.02817,-0.52806 -4.35319,-1.7767 -3.82813,-3.60747 0.50378,-1.75659 1.60414,-2.21954 3.46509,-1.45785 0.49071,0.20085 1.16926,0.44991 1.5079,0.55346 0.67619,0.20679 1.20494,0.94041 -7.5271,-10.44364 -2.62308,-3.41974 -5.34114,-6.97054 -6.04013,-7.89066 -0.69899,-0.92013 -1.36207,-1.57497 -1.47352,-1.45521 -0.24353,0.2617 -11.874021,17.13021 -16.933209,24.55941 -1.981956,2.91042 -4.994257,7.28991 -6.694001,9.73221 -1.699745,2.4423 -3.090445,4.47816 -3.090445,4.52414 0,0.2552 5.386902,2.56476 5.701007,2.44423 0.328214,-0.12595 3.022633,0.85308 4.838753,1.75819 0.701849,0.34978 1.36649,1.48016 1.36649,2.32404 0,1.50296 -1.50621,3.17985 -2.831131,3.15195 -0.261888,-0.006 -1.488192,-0.49127 -2.725119,-1.07945 z m 4.113068,-0.3537 c 0.464343,-0.46434 0.649432,-0.93941 0.649432,-1.66688 0,-1.16863 -0.369182,-1.65244 -1.260936,-1.65244 -1.008385,0 -1.608264,0.46997 -1.886609,1.47806 -0.590599,2.13897 1.016139,3.32323 2.498113,1.84126 z m -3.254957,-0.80785 c -0.164513,-0.8606 0.371615,-2.13518 1.158466,-2.75411 l 0.622032,-0.48929 -1.597582,-0.59746 c -1.837116,-0.68703 -2.624995,-0.48582 -3.160564,0.80715 -0.575456,1.38928 -0.260895,2.17034 1.193496,2.96346 1.654327,0.90215 1.94537,0.91361 1.784152,0.0703 z m 70.245374,-9.79512 c 1.17579,-0.82355 0.98836,-3.29968 -0.24977,-3.29968 -0.94423,0 -1.53288,0.75746 -1.53288,1.97246 0,1.62821 0.65582,2.11648 1.78265,1.32722 z m -77.982651,-6.94706 c 4.82645,-7.08498 14.653642,-21.38617 20.295411,-29.53524 1.80485,-2.60694 3.30092,-4.8096 3.3246,-4.89479 0.0237,-0.0852 -0.68274,-1.13847 -1.56983,-2.34063 l -1.61291,-2.18574 -3.394972,4.69929 c -1.867237,2.5846 -6.329078,8.68787 -9.915202,13.56282 -3.586124,4.87495 -9.092181,12.40729 -12.235683,16.73854 l -5.715458,7.875 2.832335,1.43793 c 1.557783,0.79087 2.951396,1.43834 3.096917,1.43884 0.145521,4.9e-4 2.348177,-3.05771 4.894792,-6.79602 z m 75.563911,5.65964 c -0.0175,-0.80019 0.13224,-1.33693 0.48012,-1.72141 0.60859,-0.67262 0.57576,-0.7122 -1.09793,-1.32396 -1.87882,-0.68673 -2.70321,-0.20136 -2.7108,1.59602 -0.005,1.08609 0.35174,1.47605 1.95017,2.13428 1.463,0.60247 1.40714,0.63022 1.37844,-0.68493 z m -99.569141,-4.31864 c 0.101117,-0.89711 0.329649,-1.41059 0.812744,-1.82613 l 0.672073,-0.57809 -1.290405,-0.55512 c -0.709722,-0.30531 -1.46805,-0.55512 -1.685173,-0.55512 -0.984768,0 -1.910355,2.3962 -1.28902,3.33706 0.184528,0.27943 2.126963,1.38893 2.475081,1.41375 0.09022,0.006 0.22733,-0.54992 0.3047,-1.23635 z m 67.626371,-21.70456 c -6.41889,-8.54935 -11.70689,-15.58496 -11.75111,-15.63469 -0.0442,-0.0497 -0.39808,0.38963 -0.78636,0.97636 l -0.70596,1.06678 6.33046,8.41635 c 3.48175,4.62899 8.21036,10.85452 10.50802,13.83451 l 4.17757,5.41817 1.75364,0.70586 c 0.9645,0.38823 1.84157,0.71826 1.94905,0.7334 0.10747,0.0151 -5.05641,-6.96739 -11.47531,-15.51674 z m -3.06158,13.54311 c -0.11668,-0.719 -0.0159,-1.12827 0.42446,-1.7239 0.53948,-0.72968 0.54629,-0.79112 0.10349,-0.93405 -0.26068,-0.0841 -0.81871,-0.28251 -1.24006,-0.44081 -0.68544,-0.25753 -0.83166,-0.21159 -1.38906,0.43643 -0.62428,0.72576 -0.79033,1.60937 -0.41376,2.20171 0.15141,0.23816 1.57404,0.99053 2.61842,1.38476 0.0272,0.0103 -0.0193,-0.40559 -0.10349,-0.92414 z m -11.07443,-35.9004 2.28938,-3.37344 h -1.10071 c -3.10678,0 -5.12823,3.06112 -4.35282,6.59155 0.24181,1.10095 0.21344,1.12981 3.16415,-3.21811 z m 3.69263,2.29123 c 0.0888,-0.23142 0.0945,-0.52907 0.0127,-0.66146 -0.21742,-0.35179 -0.84861,-0.29396 -0.98255,0.09 -0.29732,0.85235 0.64827,1.40949 0.96986,0.57144 z m -7.81748,-2.62196 c 0.0126,-0.29104 -0.14824,-0.75526 -0.3574,-1.03159 -0.3693,-0.48788 -0.39561,-0.48406 -0.90979,0.13229 -0.59153,0.70908 -0.54336,1.02444 0.31662,2.0727 l 0.59341,0.72333 0.16714,-0.68378 c 0.0919,-0.37608 0.17743,-0.92191 0.19002,-1.21295 z m -3.26757,-0.39688 c 0,-0.21429 -0.20836,-0.42975 -0.46302,-0.47879 -0.32487,-0.0626 -0.46303,0.0803 -0.46303,0.47879 0,0.39851 0.13816,0.54137 0.46303,0.4788 0.25466,-0.049 0.46302,-0.2645 0.46302,-0.4788 z m 12.56409,-6.81302 c 1.36415,-2.00091 4.6164,-6.70926 7.22721,-10.463 2.6108,-3.75374 4.69786,-6.87405 4.6379,-6.93401 -0.23949,-0.23948 -5.38787,0.44925 -5.56467,0.74442 -0.10362,0.17302 -3.09801,4.295 -6.6542,9.15996 l -6.46578,8.84538 0.66007,0.99744 c 0.60002,0.9067 0.78403,1.0062 2.02252,1.0937 0.74934,0.0529 1.42864,0.11827 1.50955,0.14519 0.0809,0.0269 1.26324,-1.58816 2.6274,-3.58908 z m -13.55768,1.19886 c -0.0356,-0.10461 -2.17433,-3.08117 -4.7527,-6.61458 -2.578375,-3.53341 -7.433004,-10.23438 -10.788066,-14.89105 -3.355061,-4.65666 -6.800865,-9.43207 -7.657342,-10.61202 -1.301925,-1.79362 -1.848313,-2.30535 -3.332683,-3.12126 -0.976499,-0.53675 -1.819195,-0.93217 -1.872657,-0.87871 -0.05346,0.0535 0.238052,0.56506 0.647808,1.13689 4.332929,6.04673 21.543182,29.74753 24.528496,33.779 l 2.104064,2.84139 0.59391,-0.72472 c 0.32665,-0.39861 0.56478,-0.81032 0.52917,-0.91494 z m 7.13234,-9.51406 c 3.70684,-5.03845 5.18872,-7.08605 5.44991,-7.5305 0.1655,-0.2816 -0.0472,-0.36003 -0.97621,-0.36003 -1.18158,0 -1.18823,0.005 -1.26992,0.99219 -0.0783,0.94542 -0.13064,0.99616 -1.11144,1.07652 -0.80183,0.0657 -1.26962,-0.0882 -2.11666,-0.69611 l -1.08735,-0.78044 -5.02708,0.49076 c -2.7649,0.26992 -5.236602,0.52364 -5.492677,0.56382 -0.357057,0.056 0.506238,1.39044 3.703387,5.7244 l 4.16897,5.65135 0.45099,-0.62426 c 0.24805,-0.34335 1.73669,-2.37181 3.30808,-4.5077 z m -2.3023,-10.26076 c 9.06072,-0.89644 10.49797,-1.09794 10.80377,-1.51469 1.21095,-1.65032 8.38422,-11.46343 8.83922,-12.09215 l 0.55256,-0.76354 -1.43267,0.1742 c -1.30017,0.15809 -15.35211,1.48811 -24.36672,2.30633 l -3.61948,0.32852 -0.171944,1.34339 c -0.424163,3.31396 -1.065864,4.38609 -2.625194,4.38609 -1.009925,0 -5.190699,-1.92502 -6.729804,-3.09871 l -0.961191,-0.73299 0.529167,0.82467 c 0.291041,0.45356 2.017447,2.85978 3.836458,5.34714 3.005926,4.11038 3.379619,4.52263 4.101041,4.52411 0.436563,9e-4 5.496717,-0.46367 11.244787,-1.03237 z m 23.6509,-3.0269 c 0.75384,-1.03253 8.18468,-11.80682 8.47808,-12.29272 0.17371,-0.28769 0.012,-0.32894 -0.80851,-0.20617 -0.56412,0.0844 -1.72448,0.23198 -2.57858,0.32793 l -1.5529,0.17445 -1.54487,2.14839 c -0.84968,1.18161 -2.97861,4.13527 -4.73095,6.56368 -1.75235,2.42842 -3.18608,4.4541 -3.18608,4.50152 0,0.0474 1.19806,-0.0224 2.66236,-0.15515 2.5546,-0.23159 2.68661,-0.27457 3.26145,-1.06193 z m -37.40268,-9.30446 c 0.141919,-0.37328 0.258035,-0.71447 0.258035,-0.7582 0,-0.0437 -0.803672,-0.13721 -1.785937,-0.20772 -2.072769,-0.14879 -1.363867,0.1822 -12.898438,-6.02235 -16.803415,-9.03872 -16.129884,-8.70054 -16.226039,-8.14725 -0.130402,0.75037 0.31581,1.13241 2.958253,2.53288 1.330928,0.70538 6.944245,3.70745 12.474036,6.67128 11.001182,5.89636 12.477191,6.59441 13.96332,6.60376 0.831454,0.005 1.041955,-0.1074 1.25677,-0.6724 z M 71.569794,127.79375 c -0.08994,-0.14552 -0.04446,-0.26458 0.101062,-0.26458 0.145521,0 0.338168,0.11906 0.428105,0.26458 0.08994,0.14552 0.04446,0.26459 -0.101062,0.26459 -0.145521,0 -0.338168,-0.11907 -0.428105,-0.26459 z m -2.097352,-0.93172 c -0.280418,-0.21215 -0.42975,-0.46583 -0.331847,-0.56373 0.236061,-0.23606 1.503157,0.35066 1.503157,0.69603 0,0.38448 -0.573913,0.31966 -1.17131,-0.1323 z m -2.569691,-1.44073 c -0.586491,-0.48859 -0.592318,-0.52038 -0.09546,-0.52075 0.618506,-4.5e-4 1.525675,0.61787 1.274707,0.86884 -0.276053,0.27606 -0.514565,0.20565 -1.17925,-0.34809 z m -2.38125,-1.30894 c -0.343543,-0.27851 -0.550713,-0.58063 -0.460377,-0.67136 0.257571,-0.25871 1.555545,0.4283 1.555545,0.82335 0,0.49276 -0.361824,0.44254 -1.095168,-0.15199 z m 44.883709,12.9282 c 4.80219,-0.4385 12.18406,-1.14496 16.40417,-1.56991 4.2201,-0.42496 10.82807,-1.07525 14.68437,-1.4451 3.8563,-0.36984 8.76155,-0.84096 10.90056,-1.04691 2.13901,-0.20596 4.01424,-0.45181 4.16719,-0.54633 0.15295,-0.0945 0.27808,-0.41245 0.27808,-0.70648 0,-0.49651 -0.11784,-0.52318 -1.65364,-0.37419 -6.47021,0.62768 -13.02415,1.22899 -17.66094,1.62036 -3.97798,0.33576 -5.54985,0.56613 -5.8962,0.86413 -0.63573,0.547 -8.3109,1.32512 -9.37398,0.95036 -0.49434,-0.17427 -1.7828,-0.15696 -3.91211,0.0525 -1.74625,0.17182 -6.68734,0.63593 -10.98021,1.03137 -4.29286,0.39544 -7.818223,0.73426 -7.834132,0.75294 -0.01591,0.0187 -0.108617,0.36593 -0.206018,0.77168 l -0.177093,0.73772 1.264352,-0.14746 c 0.695391,-0.0811 5.193411,-0.50623 9.995601,-0.94472 z m -14.899458,-1.30931 c 0.873397,-0.99534 2.4861,-1.11729 3.273234,-0.24752 0.411302,0.45449 0.695944,0.51987 1.694653,0.38925 0.660181,-0.0863 5.693471,-0.56834 11.185101,-1.07113 5.49163,-0.50278 10.1946,-1.02967 10.45104,-1.17086 0.59997,-0.33033 8.86891,-1.1335 9.65748,-0.93804 0.3291,0.0816 5.06321,-0.26531 10.52024,-0.77085 5.45703,-0.50554 11.02741,-1.00207 12.37862,-1.10341 1.97592,-0.14818 2.50669,-0.27758 2.71198,-0.66115 0.14038,-0.26231 0.25523,-0.5339 0.25523,-0.60354 0,-0.28217 -25.90519,-12.83918 -27.91354,-13.53051 -1.07489,-0.37001 -1.83682,-0.42353 -4.06403,-0.28545 -1.70306,0.10558 -2.87267,0.30149 -3.08853,0.51735 -0.21361,0.21361 -1.39971,0.41748 -3.07972,0.52933 -1.50276,0.10005 -5.94699,0.47047 -9.87605,0.82315 -7.66825,0.68831 -26.493963,2.33003 -33.205208,2.8957 -2.637088,0.22227 -4.334151,0.25738 -4.754061,0.0984 -0.602295,-0.22809 -5.72828,0.12511 -6.953751,0.47914 -0.799942,0.23109 -0.520013,0.53194 1.455208,1.56396 2.308743,1.20628 8.539039,4.56836 17.660937,9.53046 6.654602,3.61994 8.226174,4.29654 10.061394,4.33165 0.718594,0.0138 1.093482,-0.16472 1.629773,-0.77589 z m 18.339038,-2.92738 c -3.9787,-2.11062 -6.75164,-3.78825 -6.56683,-3.97293 0.26222,-0.26204 2.87901,-0.58476 11.59392,-1.42985 l 6.61458,-0.64143 4.0349,1.97943 c 3.8003,1.86433 4.49247,2.35462 3.70416,2.62378 -0.45125,0.15407 -6.51393,0.82181 -11.97239,1.31862 -2.47386,0.22517 -4.91464,0.47114 -5.42396,0.5466 -0.64321,0.0953 -1.24929,-0.0343 -1.98438,-0.42422 z m 10.18646,-0.77456 c 4.29287,-0.4338 8.0731,-0.79036 8.40052,-0.79235 0.32742,-0.002 0.59531,-0.0963 0.59531,-0.20961 0,-0.11329 -1.64439,-1.02148 -3.6542,-2.0182 l -3.65421,-1.8122 -7.65673,0.70765 c -4.2112,0.38921 -8.28742,0.77867 -9.05826,0.86547 l -1.40153,0.1578 1.13695,0.65344 c 3.68327,2.11689 5.99172,3.23244 6.69319,3.23445 0.43657,10e-4 4.3061,-0.35265 8.59896,-0.78645 z m -39.422915,-3.94923 c -5.300283,-2.73883 -10.153249,-5.45773 -10.243662,-5.73908 -0.122742,-0.38193 1.064598,-0.50651 26.118662,-2.74041 11.423385,-1.01855 21.841355,-1.95258 23.151045,-2.07563 l 2.38125,-0.22372 6.37719,3.09183 c 5.92138,2.87084 7.00212,3.50227 6.63047,3.87392 -0.18691,0.18691 -2.80827,0.4735 -11.7291,1.28236 -4.05019,0.36723 -12.78132,1.20028 -19.40252,1.85121 -10.837944,1.06548 -14.7383,1.43869 -19.314585,1.84814 -1.345564,0.12039 -1.644593,0.0323 -3.96875,-1.16862 z m 5.953125,0.46559 c 0.291042,0.002 1.222689,-0.0606 2.070326,-0.13819 l 1.54116,-0.14112 -0.879701,-0.59571 c -0.735821,-0.49827 -1.128528,-0.57484 -2.401056,-0.46812 -1.515254,0.12707 -1.913478,0.38413 -1.086609,0.70143 0.239109,0.0918 0.365871,0.2357 0.281693,0.31988 -0.08418,0.0842 -0.425368,-0.0377 -0.758199,-0.27081 -0.625602,-0.43819 -1.885495,-0.50334 -3.26553,-0.16888 l -0.79375,0.19237 0.926041,0.44361 c 0.686725,0.32896 1.302111,0.40213 2.38125,0.2831 0.800365,-0.0883 1.693334,-0.15918 1.984375,-0.15756 z m 6.960546,-0.62729 c 0.04476,-0.0368 -0.289367,-0.3309 -0.742502,-0.65356 -0.713336,-0.50794 -1.022545,-0.56183 -2.304491,-0.40166 l -1.480609,0.18499 0.766944,0.61154 c 0.658518,0.52508 0.972809,0.59133 2.223112,0.46857 0.800891,-0.0786 1.492787,-0.17308 1.537546,-0.20988 z m 5.607164,-0.54614 c 2.83379,-0.23926 14.96589,-1.43228 16.1082,-1.58402 l 1.15925,-0.15399 -0.88427,-0.53775 c -0.8437,-0.51309 -1.03647,-0.52346 -4.20196,-0.2261 -5.24779,0.49298 -11.11573,1.05847 -12.82138,1.2356 l -1.566193,0.16264 0.640153,0.4921 c 0.35209,0.27065 0.51408,0.49475 0.36,0.49798 -0.15409,0.003 -0.51128,-0.16892 -0.79375,-0.38258 -0.530281,-0.40108 -3.127329,-0.55329 -3.963786,-0.23231 -0.398755,0.15302 -0.378356,0.23089 0.176798,0.67493 0.534345,0.42739 0.902664,0.47777 2.479645,0.33916 1.018645,-0.0895 2.506923,-0.21808 3.307293,-0.28566 z m -14.552085,-0.26835 c 4.645434,-0.53941 4.669358,-0.54172 6.217708,-0.60124 l 1.322917,-0.0508 -0.79375,-0.6603 c -0.696783,-0.57964 -0.955362,-0.63943 -2.116667,-0.4894 -1.670125,0.21576 -1.867282,0.33797 -1.272603,0.78885 0.263369,0.19968 0.378571,0.36684 0.256003,0.37147 -0.122568,0.005 -0.498209,-0.20818 -0.834759,-0.47291 -0.569236,-0.44776 -0.812002,-0.45787 -3.481315,-0.14499 -1.578175,0.18499 -3.375424,0.34205 -3.993888,0.34904 -1.345419,0.0152 -1.42981,0.2939 -0.264583,0.87381 1.069005,0.53203 0.716048,0.52943 4.960937,0.0365 z m -3.571875,-1.29701 c 0.873125,-0.0895 1.931576,-0.228 2.352112,-0.30772 l 0.764612,-0.14496 -0.764612,-0.47996 c -0.715449,-0.44911 -0.960251,-0.45648 -3.80732,-0.1146 -1.67349,0.20096 -3.10224,0.37115 -3.175,0.37822 -0.07276,0.007 0.224896,0.24583 0.661458,0.53058 0.495647,0.3233 1.091854,0.47708 1.5875,0.40947 0.436563,-0.0595 1.508125,-0.18151 2.38125,-0.27103 z m 14.419792,0.2851 c 0,-0.0629 -0.360796,-0.37119 -0.801767,-0.68519 -0.680406,-0.48449 -1.00762,-0.54259 -2.16172,-0.38386 l -1.359952,0.18704 0.640365,0.49226 c 0.450617,0.34639 1.091162,0.494 2.16172,0.49814 0.836744,0.003 1.521354,-0.0455 1.521354,-0.10839 z m 5.550668,-0.58175 c 0.94281,-0.0719 1.75802,-0.17447 1.81157,-0.22802 0.0536,-0.0536 -0.42018,-0.37357 -1.05274,-0.71115 l -1.15012,-0.61377 1.03642,-0.0847 1.03643,-0.0848 -0.77185,-0.50881 c -0.77072,-0.50808 -2.05518,-0.61858 -3.26344,-0.28074 l -0.63952,0.17881 0.65892,0.43175 c 0.36241,0.23746 0.94785,0.48609 1.30098,0.55253 0.45452,0.0855 0.35226,0.13131 -0.35013,0.15682 -1.02826,0.0373 -1.31497,0.38472 -0.55744,0.67541 0.23911,0.0918 0.36587,0.2357 0.28169,0.31988 -0.0842,0.0842 -0.42537,-0.0377 -0.7582,-0.27082 -0.61706,-0.4322 -2.232771,-0.55142 -3.365293,-0.2483 l -0.628931,0.16833 0.628931,0.50313 c 0.530673,0.42452 0.897609,0.4775 2.348723,0.33912 0.94588,-0.0902 2.49118,-0.22281 3.434,-0.29466 z m 19.80882,-0.2483 c 0.0505,-0.0424 -0.36623,-0.30663 -0.92604,-0.58717 -0.81444,-0.40815 -1.32001,-0.47534 -2.53007,-0.33625 -1.85199,0.21288 -2.05991,0.38594 -1.09083,0.90795 0.56532,0.30452 1.20891,0.36597 2.60308,0.24855 1.01864,-0.0858 1.89338,-0.19067 1.94386,-0.23308 z m -33.693863,-0.0919 0.79375,-0.17984 -0.887442,-0.47135 c -0.688342,-0.3656 -1.188172,-0.42999 -2.227866,-0.287 l -1.340423,0.18436 0.640366,0.49226 c 0.652474,0.50156 1.600254,0.58361 3.021615,0.26157 z m 19.178343,-0.20651 c 0.26926,-0.24421 -1.22291,-1.12894 -1.98043,-1.17422 -0.51239,-0.0306 -0.32483,-0.1036 0.52917,-0.20585 l 1.32292,-0.15839 -0.84676,-0.4615 c -0.87675,-0.47784 -3.51887,-0.64979 -3.51887,-0.22901 0,0.12787 0.35719,0.38044 0.79375,0.56127 1.03199,0.42746 1.0075,0.73961 -0.0661,0.84313 l -0.8599,0.0829 0.92604,0.54749 c 0.71021,0.41988 1.23437,0.51988 2.24896,0.42903 0.7276,-0.0652 1.38067,-0.17084 1.45126,-0.23486 z m -14.94501,-0.19175 c 0.664242,-0.17006 -1.567928,-0.94679 -2.720888,-0.94679 -1.637003,0 -1.893897,0.25444 -0.81841,0.8106 0.744465,0.38498 2.32935,0.44596 3.539298,0.13619 z M 127,125.04176 c 0,-0.0584 -0.42566,-0.3573 -0.94591,-0.66426 -0.78958,-0.46586 -1.15034,-0.52258 -2.18281,-0.34318 l -1.2369,0.21492 0.79375,0.43874 c 0.68286,0.37746 3.57187,0.6636 3.57187,0.35378 z m -44.780727,-0.58225 c 1.64132,-0.1724 2.053725,-0.42437 1.218901,-0.74472 -0.239109,-0.0918 -0.365871,-0.2357 -0.281693,-0.31988 0.08418,-0.0842 0.425368,0.0377 0.758199,0.27081 0.396932,0.27802 1.15387,0.42099 2.199923,0.4155 l 1.594774,-0.008 -0.758826,-0.66726 c -0.543824,-0.4782 -0.956136,-0.62864 -1.455209,-0.53095 -0.38301,0.075 -1.58935,0.20256 -2.680757,0.28352 -3.474603,0.25774 -5.417408,0.46354 -5.647523,0.59825 -0.122961,0.072 0.115164,0.35947 0.529167,0.63886 0.550026,0.37119 1.037733,0.47163 1.811065,0.37296 0.582083,-0.0743 1.802474,-0.21319 2.711979,-0.30873 z m 30.184687,0.19201 c 0.27971,-0.17731 0.25814,-0.26008 -0.10402,-0.39905 -0.25131,-0.0964 -0.38407,-0.2482 -0.29502,-0.33724 0.089,-0.0891 0.47074,0.0405 0.8482,0.28777 0.53963,0.35358 0.99537,0.41107 2.13251,0.26899 1.28633,-0.16071 1.39418,-0.22016 0.9756,-0.53772 -0.63275,-0.48004 -0.228,-0.46722 0.71959,0.0228 0.57931,0.29958 1.11032,0.3449 2.16967,0.1852 l 1.40264,-0.21145 -0.89196,-0.47316 c -0.65982,-0.35001 -1.24513,-0.43664 -2.24896,-0.33287 -1.29676,0.13406 -4.47121,0.38699 -5.59033,0.44543 -0.29105,0.0152 -1.05947,0.0897 -1.70761,0.16551 l -1.17844,0.13788 0.64927,0.49898 c 0.6775,0.52067 2.4828,0.68213 3.11886,0.27893 z m 18.00188,0.006 c 0.26518,-0.0281 0.28698,-0.13028 0.0808,-0.37871 -0.21094,-0.25417 -0.16896,-0.34279 0.16604,-0.3505 0.2466,-0.006 0.85021,-0.10345 1.34136,-0.21728 0.62977,-0.14595 0.83964,-0.12063 0.71199,0.0859 -0.0996,0.16108 -0.5014,0.2947 -0.893,0.29693 -0.40385,0.002 -0.58044,0.0882 -0.40803,0.19843 0.3696,0.23637 3.57911,0.0866 3.42592,-0.15989 -0.0598,-0.0962 0.56482,-0.14358 1.388,-0.10533 l 1.49671,0.0696 -1.25678,-0.66994 c -1.16241,-0.61964 -1.38096,-0.65046 -2.91042,-0.41033 -0.9095,0.14279 -2.78473,0.34089 -4.16718,0.44023 -1.38245,0.0993 -2.74801,0.26496 -3.03457,0.36807 -0.4786,0.17219 -0.45946,0.21972 0.23504,0.5836 0.64394,0.3374 2.09917,0.43224 3.82412,0.24924 z m -32.510005,-0.25411 c 0,-0.4929 -1.75077,-0.98023 -3.042708,-0.84694 l -1.322917,0.13648 0.654184,0.46302 c 0.675846,0.47835 3.711441,0.68074 3.711441,0.24744 z m 3.305545,-0.29209 c 0.48045,-0.18755 0.45023,-0.2458 -0.33927,-0.65407 -0.69717,-0.36052 -1.162566,-0.40499 -2.379498,-0.22738 l -1.512819,0.22079 0.79375,0.44128 c 0.830755,0.46185 2.537687,0.57078 3.437837,0.21938 z m -10.713878,-0.52882 0.661458,-0.19 -0.863464,-0.45373 c -0.658132,-0.34583 -1.185495,-0.41101 -2.217674,-0.27408 l -1.354211,0.17964 0.630174,0.48457 c 0.642791,0.49428 1.941187,0.59901 3.143717,0.2536 z m 33.072918,0.11552 c 0,-0.07 -0.56555,-0.42161 -1.25677,-0.78143 l -1.25677,-0.65421 0.92604,-0.0182 0.92604,-0.0182 -0.66146,-0.5174 c -0.6698,-0.52393 -1.92359,-0.64099 -3.16282,-0.29531 -0.60013,0.16741 -0.55006,0.22485 0.66146,0.75875 l 1.31074,0.57763 -0.92605,0.0174 -0.92604,0.0174 0.62463,0.52037 c 0.46552,0.38781 1.02153,0.52036 2.18281,0.52036 0.857,0 1.55819,-0.0572 1.55819,-0.12722 z m -45.210678,-0.40194 c 0.912762,0 0.95314,-0.24513 0.137846,-0.83684 -0.498424,-0.36175 -0.95559,-0.40734 -2.571373,-0.25642 l -1.965171,0.18354 1.058333,0.58608 c 0.685128,0.37941 1.326575,0.53981 1.819011,0.45486 0.418372,-0.0722 1.102981,-0.13122 1.521354,-0.13122 z m 15.43024,0.0488 1.043521,-0.18527 -0.703483,-0.46094 c -0.738583,-0.48394 -1.680723,-0.57348 -3.082991,-0.29303 l -0.839536,0.16791 0.740317,0.47421 c 0.816344,0.52291 1.290981,0.57253 2.842172,0.29712 z m 32.426268,-0.027 0.66146,-0.19 -0.84633,-0.44486 c -0.66625,-0.35021 -1.14475,-0.40008 -2.24895,-0.23438 l -1.40264,0.21048 0.79375,0.44016 c 0.83101,0.46082 1.92567,0.53946 3.04271,0.2186 z m -14.02292,-0.27711 c 0,-0.47569 -1.01756,-0.80306 -2.49614,-0.80306 -1.5653,0 -1.7512,0.12706 -1.00958,0.69002 0.53115,0.40321 3.50572,0.49912 3.50572,0.11304 z m 19.91372,-0.16398 c 1.12988,-0.095 2.10705,-0.25809 2.17148,-0.36234 0.0644,-0.10424 -0.28297,-0.38034 -0.77199,-0.61353 -0.72075,-0.34371 -1.20712,-0.37802 -2.56835,-0.18121 -0.92358,0.13353 -2.23504,0.24517 -2.91436,0.2481 -0.67932,0.003 -1.43029,0.0802 -1.66882,0.17174 -0.35841,0.13753 -0.30476,0.25117 0.30909,0.65469 0.55435,0.36441 1.07837,0.45873 2.06569,0.37181 0.72761,-0.0641 2.24737,-0.19422 3.37726,-0.28926 z m -47.337025,-0.24037 c 0.997232,-0.0552 1.8715,-0.1587 1.942817,-0.23002 0.326427,-0.32643 -1.622422,-0.96244 -2.949076,-0.96244 -1.427681,0 -1.914704,0.30127 -1.033603,0.63938 0.239109,0.0918 0.365871,0.2357 0.281693,0.31988 -0.08418,0.0842 -0.425367,-0.0377 -0.758199,-0.27081 -0.63772,-0.44668 -1.715975,-0.53534 -3.112878,-0.25596 l -0.839536,0.16791 0.740317,0.49178 c 0.594071,0.39462 1.05392,0.46301 2.327817,0.3462 0.873125,-0.0801 2.403417,-0.19073 3.400648,-0.24592 z m 13.531522,0.12858 c -0.359861,-0.58227 -1.628356,-0.96263 -2.843108,-0.85251 -1.37965,0.12506 -1.572214,0.35681 -0.661458,0.79605 0.771079,0.37188 3.728956,0.41953 3.504566,0.0565 z m 19.132713,-0.1102 c 0.91797,-0.0523 1.73271,-0.15878 1.81052,-0.23659 0.0778,-0.0778 -0.21862,-0.32769 -0.65873,-0.55529 -1.02725,-0.53121 -3.4069,-0.30426 -2.92302,0.27878 0.40208,0.48448 -0.0385,0.45754 -0.75792,-0.0463 -0.43773,-0.3066 -0.91748,-0.36229 -1.94582,-0.22587 l -1.36485,0.18105 0.63018,0.5029 c 0.51348,0.40977 0.89965,0.47452 2.08538,0.34968 0.80037,-0.0843 2.20628,-0.19601 3.12426,-0.24833 z m -14.76593,-0.16491 c 0.36381,0.005 1.19176,-0.0613 1.8399,-0.14627 l 1.17845,-0.15452 -0.64928,-0.49898 c -0.64973,-0.49933 -1.97231,-0.64526 -3.10283,-0.34237 -0.56416,0.15115 -0.57237,0.18324 -0.13229,0.51714 0.6603,0.50101 0.0533,0.46237 -0.66746,-0.0425 -0.45892,-0.32144 -0.92961,-0.37324 -2.082512,-0.22919 l -1.489582,0.18611 0.634575,0.50434 c 0.525301,0.41749 0.907944,0.47796 2.222079,0.35116 0.87312,-0.0842 1.88515,-0.14947 2.24895,-0.14494 z M 89.334131,122.2375 c 1.282612,0 1.330882,-0.29633 0.144406,-0.8865 -0.474457,-0.23601 -1.193657,-0.30137 -2.162822,-0.19656 l -1.451996,0.15702 0.790537,0.5879 c 0.434796,0.32334 0.949104,0.5317 1.142906,0.46302 0.193803,-0.0687 0.885439,-0.12488 1.536969,-0.12488 z m 19.211179,-0.26167 c 1.17316,-0.007 -0.23621,-1.04258 -1.46765,-1.07802 -1.30177,-0.0375 0.7129,-0.53331 2.69571,-0.66347 1.09222,-0.0717 2.03649,-0.181 2.09838,-0.24289 0.0619,-0.0619 -0.30533,-0.31177 -0.81603,-0.55531 -0.68877,-0.32845 -1.2499,-0.3946 -2.17299,-0.25618 -1.13483,0.17018 -1.20158,0.21909 -0.75786,0.55533 0.64034,0.48522 0.0996,0.49533 -0.59177,0.0111 -0.39413,-0.27606 -0.91374,-0.32524 -1.9771,-0.18711 l -1.44246,0.18738 1.05834,0.57228 c 0.85752,0.4637 0.94537,0.57451 0.46302,0.58398 -0.32742,0.006 -0.59532,0.11624 -0.59532,0.24401 0,0.53709 1.21189,1.08735 2.11667,0.96108 0.50932,-0.0711 1.1344,-0.13055 1.38906,-0.13215 z m 16.95498,-0.009 0.83825,-0.006 -0.66146,-0.5174 c -0.71779,-0.56146 -3.01256,-0.74146 -3.31033,-0.25965 -0.19826,0.32078 1.43654,1.08771 1.94291,0.91146 0.1938,-0.0675 0.72959,-0.12529 1.19063,-0.12852 z m -31.765655,-0.21672 c 0.405671,-0.16036 0.363418,-0.24778 -0.312872,-0.64727 -0.617025,-0.36449 -1.09938,-0.42455 -2.287727,-0.28489 l -1.505846,0.17699 0.628093,0.483 c 0.641381,0.49322 2.542809,0.642 3.478352,0.27217 z m 17.824495,-0.042 c 1.03001,0 0.98429,-0.33722 -0.12018,-0.88636 -0.68936,-0.34275 -2.96029,-0.30112 -2.95931,0.0543 8.4e-4,0.30157 1.4425,1.05137 1.80711,0.93987 0.1938,-0.0593 0.76637,-0.10776 1.27238,-0.10776 z m -13.134128,-0.40959 c 0.363802,-0.0282 1.167474,-0.0667 1.785938,-0.0855 2.25765,-0.0685 0.69602,-1.09245 -1.666096,-1.09245 -1.405748,0 -1.883881,0.30327 -1.008015,0.63937 0.23911,0.0918 0.365872,0.2357 0.281694,0.31988 -0.08418,0.0842 -0.425368,-0.0377 -0.758199,-0.27081 -0.650147,-0.45538 -2.757602,-0.56986 -3.368525,-0.18298 -0.285317,0.18068 -0.1965,0.32675 0.396875,0.65271 0.572755,0.31464 1.129367,0.37621 2.219661,0.24552 0.800365,-0.0959 1.752865,-0.19754 2.116667,-0.22578 z m 30.427078,-0.11958 c -0.6953,-0.54387 -3.175,-0.76078 -3.175,-0.27773 0,0.47988 0.93374,0.79082 2.38125,0.79297 l 1.45521,0.002 z m -12.7,0.049 c 0,-0.50179 -1.76217,-1.0013 -3.15688,-0.89487 l -1.4371,0.10967 0.64335,0.49451 c 0.46779,0.35957 1.09458,0.49611 2.29699,0.50039 0.9095,0.003 1.65364,-0.0911 1.65364,-0.2097 z m 15.76595,-0.0114 c -0.0771,-0.12484 -1.14693,-0.67553 -2.37727,-1.22375 -1.83034,-0.81557 -2.41383,-0.96359 -3.20982,-0.81426 -0.90252,0.16932 -0.9374,0.20935 -0.48261,0.55388 0.67362,0.51031 0.0888,0.48786 -0.64296,-0.0247 -0.44031,-0.3084 -0.90015,-0.36628 -1.81733,-0.22874 l -1.22787,0.18413 0.63398,0.50403 c 0.51043,0.4058 0.89178,0.47282 1.95689,0.34388 2.11636,-0.2562 3.37031,-0.13986 4.22742,0.39223 0.79262,0.49205 3.20923,0.7496 2.93957,0.31328 z m -12.49045,-0.25073 c 0.0724,-0.11723 -0.25507,-0.42144 -0.72782,-0.67603 -0.69061,-0.37192 -1.11643,-0.41834 -2.16663,-0.23621 l -1.30709,0.22669 0.79375,0.43874 c 0.81962,0.45305 3.1749,0.62363 3.40779,0.24681 z m -14.83449,-0.27775 c 0.40562,-0.15995 0.34058,-0.25537 -0.4219,-0.61897 -0.67739,-0.32303 -1.25691,-0.384 -2.33163,-0.24531 l -1.43018,0.18456 0.79375,0.44241 c 0.81383,0.45361 2.53576,0.57415 3.38996,0.23731 z m 17.74262,-0.005 c 0.45548,-0.17899 0.44036,-0.2304 -0.18913,-0.64286 -0.37632,-0.24657 -0.95629,-0.46702 -1.28883,-0.48988 -0.33254,-0.0229 -0.0272,-0.11216 0.67851,-0.19844 l 1.28313,-0.15687 -0.8099,-0.59568 c -0.75158,-0.55279 -0.93922,-0.57698 -2.60605,-0.33597 -0.98788,0.14284 -2.35467,0.26207 -3.0373,0.26495 -0.68264,0.003 -1.30262,0.10469 -1.37773,0.22623 -0.23993,0.38821 1.51985,1.03506 2.48659,0.91401 1.56781,-0.1963 1.7348,-0.30395 1.16509,-0.75107 -0.37774,-0.29646 -0.25563,-0.2824 0.48856,0.0563 1.1779,0.53608 1.25724,0.8161 0.26458,0.93393 l -0.7276,0.0864 0.79375,0.44978 c 0.82976,0.47019 2.03376,0.57033 2.87633,0.23923 z m -7.60576,-0.82659 c 0.86832,0 0.7868,-0.39935 -0.16172,-0.79224 -0.50783,-0.21035 -1.23604,-0.2604 -2.03834,-0.14008 l -1.24823,0.18718 0.64927,0.51077 c 0.43886,0.34524 0.8958,0.46598 1.40996,0.37257 0.41837,-0.076 1.04345,-0.1382 1.38906,-0.1382 z m 11.59824,-1.02429 0.78339,-0.16794 -1.08486,-0.48921 c -0.90988,-0.41029 -1.3563,-0.45136 -2.76777,-0.25459 l -1.68291,0.23461 0.79375,0.44324 c 0.79867,0.44599 2.50005,0.54652 3.9584,0.23389 z m 0.17986,15.29535 c 3.18058,-0.29809 4.24846,-0.54858 3.88559,-0.91145 -0.14982,-0.14981 -7.2363,0.51931 -8.62998,0.81486 -0.91983,0.19507 -0.38487,0.71089 0.57029,0.54988 0.45627,-0.0769 2.33462,-0.28089 4.1741,-0.45329 z M 61.948111,121.22918 c -0.291275,-0.40906 -0.595502,-1.03414 -0.67606,-1.38907 -0.14288,-0.62951 -1.28591,-10.80404 -3.715783,-33.075576 -0.660008,-6.049455 -1.21217,-11.764455 -1.227026,-12.699999 -0.0252,-1.586675 -0.04581,-1.642282 -0.306779,-0.827423 -0.220357,0.688056 -0.01399,3.300761 0.97179,12.303125 0.688357,6.286256 1.778558,16.251593 2.422669,22.145183 1.261483,11.54252 1.506444,13.03378 2.265716,13.79305 0.731051,0.73105 0.870378,0.60022 0.265473,-0.24929 z m 1.168246,-0.5658 c 0.420668,-0.42042 5.153464,-0.87366 7.262812,-0.69553 1.903018,0.16071 5.487744,-0.11831 37.173961,-2.89345 12.32329,-1.07929 12.8511,-1.13772 13.24714,-1.4664 0.21364,-0.17731 1.64061,-0.37309 3.28857,-0.4512 L 127,115.01881 v -0.85769 c 0,-0.88725 -1.11695,-10.68866 -2.24553,-19.704868 -0.3552,-2.837656 -1.06674,-9.028906 -1.58121,-13.758333 -0.51447,-4.729427 -1.05255,-9.022807 -1.19572,-9.540845 -0.14317,-0.518037 -0.56961,-1.232412 -0.94765,-1.5875 -0.66814,-0.627577 -0.78838,-0.643672 -4.30393,-0.576133 -1.98912,0.03821 -11.6533,0.362404 -21.475958,0.720424 -9.822656,0.358019 -21.788437,0.775383 -26.590625,0.927475 -4.802187,0.152092 -9.16713,0.342591 -9.699874,0.42333 -1.924217,0.291625 -2.296814,1.4914 -1.841752,5.930508 0.369333,3.602831 2.381532,21.88312 3.999399,36.333462 0.794715,7.09817 1.103257,8.23016 1.999207,7.33474 z m 0.791223,-3.49972 C 63.82352,116.68005 63.158393,110.9861 62.429526,104.51042 61.700659,98.034742 60.690844,89.062982 60.185491,84.573174 59.680139,80.083367 59.266669,75.901712 59.266669,75.280608 v -1.12928 l 3.108854,-0.169379 c 1.70987,-0.09316 8.109479,-0.348463 14.221354,-0.567343 6.111875,-0.218881 13.731875,-0.508859 16.933333,-0.644395 16.71029,-0.707442 26.36097,-0.910547 26.57802,-0.559353 0.11826,0.191345 0.29547,1.196946 0.39381,2.234668 0.23246,2.453001 3.22365,28.530574 3.70651,32.313854 0.65416,5.12536 0.7,5.90631 0.35905,6.11703 -0.31735,0.19613 -9.6795,1.03813 -26.010307,2.33929 -16.348285,1.30254 -31.216921,2.51023 -32.858852,2.66893 l -1.63802,0.15831 z m 8.859246,-0.34762 c 6.388422,-0.5398 28.714884,-2.36044 47.842304,-3.90137 l 3.79559,-0.30578 -0.17419,-1.73413 c -0.0958,-0.95377 -0.40374,-3.52007 -0.6843,-5.70288 -0.42822,-3.33161 -2.99576,-25.576103 -3.58141,-31.028319 -0.098,-0.912761 -0.25188,-1.703177 -0.34185,-1.756479 -0.09,-0.0533 -2.8425,0.0039 -6.11672,0.127171 -3.27422,0.123246 -11.07281,0.416856 -17.330207,0.652466 -6.257395,0.23561 -17.004269,0.638937 -23.881941,0.896282 -6.877672,0.257345 -12.564753,0.527794 -12.637957,0.600998 -0.0732,0.0732 0.467368,5.419611 1.201272,11.880905 2.088886,18.390586 3.436335,30.423936 3.436335,30.688066 0,0.31603 -0.482455,0.33977 8.473074,-0.41693 z M 90.222919,71.569794 c 0,-0.218281 0.178593,-0.396875 0.396875,-0.396875 0.218281,0 0.396874,0.178594 0.396874,0.396875 0,0.218282 -0.178593,0.396875 -0.396874,0.396875 -0.218282,0 -0.396875,-0.178593 -0.396875,-0.396875 z"
       id="path1" /></g></svg>
